<mxfile host="app.diagrams.net" agent="Mozilla/5.0 (X11; Linux x86_64) AppleWebKit/537.36 (KHTML, like Gecko) Chrome/123.0.0.0 Safari/537.36" version="24.8.1">
  <diagram name="Page-1" id="WlN5fm7OzAwMnCgeBWAB">
    <mxGraphModel dx="638" dy="384" grid="1" gridSize="10" guides="1" tooltips="1" connect="1" arrows="1" fold="1" page="1" pageScale="1" pageWidth="827" pageHeight="1169" math="0" shadow="0">
      <root>
        <mxCell id="0" />
        <mxCell id="1" parent="0" />
        <mxCell id="4q9lah2tgBsX9RZc6Aao-2" value="" style="shape=umlLifeline;perimeter=lifelinePerimeter;whiteSpace=wrap;html=1;container=1;dropTarget=0;collapsible=0;recursiveResize=0;outlineConnect=0;portConstraint=eastwest;newEdgeStyle={&quot;curved&quot;:0,&quot;rounded&quot;:0};participant=umlActor;" vertex="1" parent="1">
          <mxGeometry x="100" y="80" width="20" height="340" as="geometry" />
        </mxCell>
        <mxCell id="4q9lah2tgBsX9RZc6Aao-6" value="" style="html=1;points=[[0,0,0,0,5],[0,1,0,0,-5],[1,0,0,0,5],[1,1,0,0,-5]];perimeter=orthogonalPerimeter;outlineConnect=0;targetShapes=umlLifeline;portConstraint=eastwest;newEdgeStyle={&quot;curved&quot;:0,&quot;rounded&quot;:0};" vertex="1" parent="4q9lah2tgBsX9RZc6Aao-2">
          <mxGeometry x="5" y="70" width="10" height="220" as="geometry" />
        </mxCell>
        <mxCell id="4q9lah2tgBsX9RZc6Aao-3" value="Server" style="shape=umlLifeline;perimeter=lifelinePerimeter;whiteSpace=wrap;html=1;container=1;dropTarget=0;collapsible=0;recursiveResize=0;outlineConnect=0;portConstraint=eastwest;newEdgeStyle={&quot;curved&quot;:0,&quot;rounded&quot;:0};" vertex="1" parent="1">
          <mxGeometry x="215" y="80" width="100" height="340" as="geometry" />
        </mxCell>
        <mxCell id="4q9lah2tgBsX9RZc6Aao-5" value="" style="html=1;points=[[0,0,0,0,5],[0,1,0,0,-5],[1,0,0,0,5],[1,1,0,0,-5]];perimeter=orthogonalPerimeter;outlineConnect=0;targetShapes=umlLifeline;portConstraint=eastwest;newEdgeStyle={&quot;curved&quot;:0,&quot;rounded&quot;:0};" vertex="1" parent="4q9lah2tgBsX9RZc6Aao-3">
          <mxGeometry x="45" y="70" width="10" height="220" as="geometry" />
        </mxCell>
        <mxCell id="4q9lah2tgBsX9RZc6Aao-4" value="Database" style="shape=umlLifeline;perimeter=lifelinePerimeter;whiteSpace=wrap;html=1;container=1;dropTarget=0;collapsible=0;recursiveResize=0;outlineConnect=0;portConstraint=eastwest;newEdgeStyle={&quot;curved&quot;:0,&quot;rounded&quot;:0};" vertex="1" parent="1">
          <mxGeometry x="380" y="80" width="100" height="340" as="geometry" />
        </mxCell>
        <mxCell id="4q9lah2tgBsX9RZc6Aao-7" value="" style="html=1;points=[[0,0,0,0,5],[0,1,0,0,-5],[1,0,0,0,5],[1,1,0,0,-5]];perimeter=orthogonalPerimeter;outlineConnect=0;targetShapes=umlLifeline;portConstraint=eastwest;newEdgeStyle={&quot;curved&quot;:0,&quot;rounded&quot;:0};" vertex="1" parent="4q9lah2tgBsX9RZc6Aao-4">
          <mxGeometry x="45" y="70" width="10" height="220" as="geometry" />
        </mxCell>
        <mxCell id="4q9lah2tgBsX9RZc6Aao-8" value="&lt;font style=&quot;font-size: 8px;&quot;&gt;Add item&lt;/font&gt;" style="html=1;verticalAlign=bottom;endArrow=block;curved=0;rounded=0;" edge="1" parent="1">
          <mxGeometry width="80" relative="1" as="geometry">
            <mxPoint x="115" y="169" as="sourcePoint" />
            <mxPoint x="260" y="169" as="targetPoint" />
          </mxGeometry>
        </mxCell>
        <mxCell id="4q9lah2tgBsX9RZc6Aao-9" value="&lt;font style=&quot;font-size: 8px;&quot;&gt;Store item in DB&lt;/font&gt;" style="html=1;verticalAlign=bottom;endArrow=block;curved=0;rounded=0;" edge="1" parent="1">
          <mxGeometry width="80" relative="1" as="geometry">
            <mxPoint x="270" y="177" as="sourcePoint" />
            <mxPoint x="425" y="177" as="targetPoint" />
          </mxGeometry>
        </mxCell>
        <mxCell id="4q9lah2tgBsX9RZc6Aao-10" value="&lt;font style=&quot;font-size: 8px;&quot;&gt;Return generated item ID&lt;/font&gt;" style="html=1;verticalAlign=bottom;endArrow=open;dashed=1;endSize=8;curved=0;rounded=0;" edge="1" parent="1">
          <mxGeometry relative="1" as="geometry">
            <mxPoint x="425" y="193" as="sourcePoint" />
            <mxPoint x="270" y="193" as="targetPoint" />
          </mxGeometry>
        </mxCell>
        <mxCell id="4q9lah2tgBsX9RZc6Aao-11" value="&lt;font style=&quot;font-size: 8px;&quot;&gt;Return item with ID&lt;/font&gt;" style="html=1;verticalAlign=bottom;endArrow=open;dashed=1;endSize=8;curved=0;rounded=0;" edge="1" parent="1">
          <mxGeometry relative="1" as="geometry">
            <mxPoint x="260" y="203" as="sourcePoint" />
            <mxPoint x="115" y="203" as="targetPoint" />
          </mxGeometry>
        </mxCell>
        <mxCell id="4q9lah2tgBsX9RZc6Aao-12" value="&lt;font style=&quot;font-size: 8px;&quot;&gt;Update item fields&lt;/font&gt;" style="html=1;verticalAlign=bottom;endArrow=block;curved=0;rounded=0;" edge="1" parent="1">
          <mxGeometry width="80" relative="1" as="geometry">
            <mxPoint x="115" y="250" as="sourcePoint" />
            <mxPoint x="260" y="250" as="targetPoint" />
          </mxGeometry>
        </mxCell>
        <mxCell id="4q9lah2tgBsX9RZc6Aao-13" value="&lt;font style=&quot;font-size: 8px;&quot;&gt;Update item in DB&lt;/font&gt;" style="html=1;verticalAlign=bottom;endArrow=block;curved=0;rounded=0;" edge="1" parent="1">
          <mxGeometry width="80" relative="1" as="geometry">
            <mxPoint x="270" y="257" as="sourcePoint" />
            <mxPoint x="425" y="257" as="targetPoint" />
          </mxGeometry>
        </mxCell>
        <mxCell id="4q9lah2tgBsX9RZc6Aao-16" value="&lt;font style=&quot;font-size: 8px;&quot;&gt;Return success or failure&lt;/font&gt;" style="html=1;verticalAlign=bottom;endArrow=open;dashed=1;endSize=8;curved=0;rounded=0;" edge="1" parent="1">
          <mxGeometry relative="1" as="geometry">
            <mxPoint x="260" y="272" as="sourcePoint" />
            <mxPoint x="115" y="272" as="targetPoint" />
          </mxGeometry>
        </mxCell>
        <mxCell id="4q9lah2tgBsX9RZc6Aao-17" value="&lt;font style=&quot;font-size: 8px;&quot;&gt;Delete items&lt;/font&gt;" style="html=1;verticalAlign=bottom;endArrow=block;curved=0;rounded=0;" edge="1" parent="1">
          <mxGeometry width="80" relative="1" as="geometry">
            <mxPoint x="116" y="312" as="sourcePoint" />
            <mxPoint x="261" y="312" as="targetPoint" />
          </mxGeometry>
        </mxCell>
        <mxCell id="4q9lah2tgBsX9RZc6Aao-18" value="&lt;span style=&quot;font-size: 8px;&quot;&gt;Delete request&lt;/span&gt;" style="html=1;verticalAlign=bottom;endArrow=block;curved=0;rounded=0;" edge="1" parent="1">
          <mxGeometry width="80" relative="1" as="geometry">
            <mxPoint x="270" y="320" as="sourcePoint" />
            <mxPoint x="425" y="320" as="targetPoint" />
          </mxGeometry>
        </mxCell>
        <mxCell id="4q9lah2tgBsX9RZc6Aao-19" value="&lt;font style=&quot;font-size: 8px;&quot;&gt;Return number of deleted records&lt;/font&gt;" style="html=1;verticalAlign=bottom;endArrow=open;dashed=1;endSize=8;curved=0;rounded=0;" edge="1" parent="1">
          <mxGeometry relative="1" as="geometry">
            <mxPoint x="425" y="340" as="sourcePoint" />
            <mxPoint x="270" y="340" as="targetPoint" />
          </mxGeometry>
        </mxCell>
        <mxCell id="4q9lah2tgBsX9RZc6Aao-20" value="&lt;span style=&quot;font-size: 8px;&quot;&gt;Return number of deleted records&lt;/span&gt;" style="html=1;verticalAlign=bottom;endArrow=open;dashed=1;endSize=8;curved=0;rounded=0;" edge="1" parent="1">
          <mxGeometry relative="1" as="geometry">
            <mxPoint x="259" y="350" as="sourcePoint" />
            <mxPoint x="114" y="350" as="targetPoint" />
          </mxGeometry>
        </mxCell>
      </root>
    </mxGraphModel>
  </diagram>
</mxfile>
